<?xml version="1.0" encoding="UTF-8" standalone="no"?>
<svg
   width="1080"
   zoomAndPan="magnify"
   viewBox="0 0 810 809.999993"
   height="1080"
   preserveAspectRatio="xMidYMid meet"
   version="1.0"
   id="svg12"
   sodipodi:docname="4.svg"
   inkscape:version="1.1.2 (0a00cf5339, 2022-02-04)"
   xmlns:inkscape="http://www.inkscape.org/namespaces/inkscape"
   xmlns:sodipodi="http://sodipodi.sourceforge.net/DTD/sodipodi-0.dtd"
   xmlns="http://www.w3.org/2000/svg"
   xmlns:svg="http://www.w3.org/2000/svg">
  <defs
     id="defs16" />
  <sodipodi:namedview
     id="namedview14"
     pagecolor="#ffffff"
     bordercolor="#666666"
     borderopacity="1.0"
     inkscape:pageshadow="2"
     inkscape:pageopacity="0.0"
     inkscape:pagecheckerboard="0"
     showgrid="false"
     inkscape:zoom="0.26018519"
     inkscape:cx="259.4306"
     inkscape:cy="597.65123"
     inkscape:window-width="1366"
     inkscape:window-height="708"
     inkscape:window-x="0"
     inkscape:window-y="23"
     inkscape:window-maximized="1"
     inkscape:current-layer="svg12" />
  <path
     fill="#100f0d"
     d="M 337.5 418.5 C 337.5 409.90625 350.207031 389.8125 364.5 371.882812 C 378.84375 389.917969 391.5 410.117188 391.5 418.5 C 391.5 433.371094 379.371094 445.5 364.5 445.5 C 349.628906 445.5 337.5 433.371094 337.5 418.5 Z M 418.5 418.5 C 418.5 392.292969 381.902344 350.15625 374.519531 341.984375 C 369.402344 336.289062 359.59375 336.289062 354.480469 341.984375 C 347.097656 350.15625 310.5 392.292969 310.5 418.5 C 310.5 448.296875 334.703125 472.5 364.5 472.5 C 394.292969 472.5 418.5 448.296875 418.5 418.5 "
     fill-opacity="1"
     fill-rule="nonzero"
     id="path8" />
  <path
     fill="#100f0d"
     d="M 783 459 L 513 459 L 513 418.5 C 513 411.066406 519.0625 405 526.5 405 L 769.5 405 C 776.933594 405 783 411.066406 783 418.5 Z M 783 702 L 513 702 L 513 662.714844 L 641.671875 628.171875 C 665.402344 621.949219 681.90625 600.488281 681.90625 575.914062 C 681.90625 571.0625 681.328125 566.578125 680.113281 561.992188 C 676.371094 548.121094 667.457031 536.46875 654.90625 529.191406 C 642.355469 522.019531 627.75 520.171875 613.828125 523.8125 L 513 550.8125 L 513 486 L 783 486 Z M 783 769.5 C 783 776.9375 776.933594 783 769.5 783 L 526.5 783 C 519.0625 783 513 776.9375 513 769.5 L 513 729 L 783 729 Z M 362.757812 675 L 178.347656 675 C 170.226562 675 162.527344 672.734375 155.777344 668.25 L 135.949219 655.015625 C 129.355469 650.425781 121.339844 648 113.273438 648 L 108 648 L 108 540 L 115.171875 540 C 121.5 540 127.5625 538.523438 133.257812 535.675781 L 163.738281 520.4375 C 189.789062 507.464844 219.636719 504.246094 247.746094 511.261719 L 422.558594 557.984375 C 433.371094 560.777344 441.332031 570.21875 442.386719 581.292969 C 442.652344 584.824219 442.546875 588.042969 441.597656 591.046875 C 438.484375 602.753906 427.675781 611.035156 415.546875 611.035156 C 412.960938 611.035156 410.640625 610.71875 408.53125 610.085938 L 314.03125 584.667969 C 306.859375 582.769531 299.425781 587.09375 297.421875 594.265625 C 295.523438 601.4375 299.847656 608.871094 306.964844 610.875 L 401.464844 636.242188 C 405.949219 637.347656 410.640625 638.035156 415.546875 638.035156 C 439.960938 638.035156 461.425781 621.527344 467.648438 598.167969 C 468.332031 595.742188 468.703125 593.210938 468.964844 590.46875 L 620.839844 549.96875 C 627.90625 548.121094 635.183594 549.019531 641.40625 552.710938 C 647.578125 556.191406 652.164062 561.992188 653.957031 569.003906 C 654.589844 571.324219 654.90625 573.488281 654.90625 575.914062 C 654.90625 588.199219 646.628906 598.851562 634.761719 601.964844 Z M 567 351 L 729 351 L 729 378 L 567 378 Z M 472.5 270 C 469.808594 270 467.226562 270.792969 465.0625 272.269531 L 435.796875 291.726562 L 423.351562 273.113281 L 463.480469 243 L 580.5 243 L 580.5 270 Z M 607.5 243 L 688.5 243 L 688.5 324 L 607.5 324 Z M 675 202.5 L 675 216 L 621 216 L 621 202.5 C 621 195.066406 627.0625 189 634.5 189 L 661.5 189 C 668.933594 189 675 195.066406 675 202.5 Z M 496.125 111.535156 C 495.859375 108.949219 495.332031 106.523438 494.648438 103.941406 C 486.949219 75.199219 457.363281 58.0625 428.625 65.761719 L 333.964844 91.125 C 326.847656 93.023438 322.523438 100.460938 324.421875 107.738281 C 326.425781 114.910156 333.703125 119.074219 341.03125 117.175781 L 435.53125 91.917969 C 449.980469 88.015625 464.800781 96.503906 468.597656 110.953125 C 470.496094 117.96875 469.546875 125.140625 465.90625 131.46875 C 462.375 137.691406 456.414062 142.171875 449.558594 144.019531 L 280.28125 189.421875 L 274.746094 190.742188 C 246.53125 197.753906 216.789062 194.539062 190.898438 181.566406 L 160.257812 166.324219 C 154.5625 163.476562 148.339844 162 142.171875 162 L 135 162 L 135 54 L 140.273438 54 C 148.339844 54 156.039062 51.734375 162.789062 47.25 L 182.933594 33.75 C 189.527344 29.269531 197.382812 27 205.347656 27 L 389.757812 27 L 661.921875 100.039062 C 673.628906 103.148438 681.90625 113.800781 681.90625 126.089844 C 681.90625 128.515625 681.589844 130.675781 680.957031 132.996094 C 679.164062 140.011719 674.578125 145.8125 668.40625 149.292969 C 662.027344 152.984375 654.90625 153.878906 647.839844 152.035156 Z M 81 675 L 27 675 L 27 513 L 81 513 Z M 108 189 L 54 189 L 54 27 L 108 27 Z M 769.5 378 L 756 378 L 756 337.5 C 756 330.066406 749.933594 324 742.5 324 L 715.5 324 L 715.5 229.5 C 715.5 222.066406 709.433594 216 702 216 L 702 202.5 C 702 189.265625 695.511719 177.503906 685.546875 170.121094 C 696.039062 162.792969 703.738281 152.402344 707.113281 140.011719 C 708.328125 135.421875 708.90625 130.941406 708.90625 126.089844 C 708.90625 101.515625 692.402344 80.050781 668.777344 73.828125 L 395.03125 0.421875 C 393.765625 0.160156 392.710938 0 391.5 0 L 205.347656 0 C 191.953125 0 179.03125 3.902344 167.957031 11.339844 L 147.8125 24.734375 C 145.546875 26.210938 142.960938 27 140.273438 27 L 135 27 L 135 13.5 C 135 6.066406 128.933594 0 121.5 0 L 40.5 0 C 33.066406 0 27 6.066406 27 13.5 L 27 202.5 C 27 209.9375 33.066406 216 40.5 216 L 121.5 216 C 128.933594 216 135 209.9375 135 202.5 L 135 189 L 142.171875 189 C 144.175781 189 146.335938 189.527344 148.234375 190.476562 L 178.714844 205.71875 C 199.546875 216.160156 222.328125 221.378906 245.265625 221.378906 C 257.289062 221.378906 269.3125 219.902344 281.230469 216.949219 L 456.574219 170.121094 C 470.496094 166.324219 482.097656 157.414062 489.214844 144.96875 C 490.480469 142.859375 491.535156 140.644531 492.484375 138.535156 L 610.453125 169.964844 C 600.589844 177.398438 594 189.160156 594 202.5 L 594 216 L 459 216 C 456.046875 216 453.199219 216.949219 450.878906 218.691406 L 396.878906 259.191406 C 391.234375 263.515625 389.757812 271.476562 393.765625 277.4375 L 420.765625 317.9375 C 423.351562 321.839844 427.675781 324 432 324 C 434.582031 324 437.113281 323.316406 439.433594 321.734375 L 476.558594 297 L 580.5 297 L 580.5 324 L 553.5 324 C 546.0625 324 540 330.066406 540 337.5 L 540 378 L 526.5 378 C 504.246094 378 486 396.246094 486 418.5 L 486 558.089844 L 465.484375 563.625 C 459.15625 548.226562 446.027344 536.203125 429.574219 531.773438 L 259.714844 486.421875 L 254.230469 485.050781 C 219.902344 476.5625 183.621094 480.464844 151.714844 496.285156 L 121.078125 511.628906 C 119.230469 512.578125 117.332031 513 115.171875 513 L 108 513 L 108 499.5 C 108 492.066406 101.933594 486 94.5 486 L 13.5 486 C 6.066406 486 0 492.066406 0 499.5 L 0 688.5 C 0 695.9375 6.066406 702 13.5 702 L 94.5 702 C 101.933594 702 108 695.9375 108 688.5 L 108 675 L 113.273438 675 C 115.960938 675 118.546875 675.792969 120.8125 677.269531 L 140.957031 690.664062 C 152.03125 698.097656 164.953125 702 178.347656 702 L 364.5 702 C 365.710938 702 366.765625 701.84375 368.03125 701.578125 L 486 669.886719 L 486 769.5 C 486 791.753906 504.246094 810 526.5 810 L 769.5 810 C 791.753906 810 810 791.753906 810 769.5 L 810 418.5 C 810 396.246094 791.753906 378 769.5 378 "
     fill-opacity="1"
     fill-rule="nonzero"
     id="path10"
     style="stroke-width:3.74999998;stroke-miterlimit:4;stroke-dasharray:none" />
</svg>
