<?xml version="1.0" encoding="UTF-8" standalone="no"?>
<svg
   width="1080"
   zoomAndPan="magnify"
   viewBox="0 0 810 809.999993"
   height="1080"
   preserveAspectRatio="xMidYMid meet"
   version="1.0"
   id="svg38"
   sodipodi:docname="5.svg"
   inkscape:version="1.1.2 (0a00cf5339, 2022-02-04)"
   xmlns:inkscape="http://www.inkscape.org/namespaces/inkscape"
   xmlns:sodipodi="http://sodipodi.sourceforge.net/DTD/sodipodi-0.dtd"
   xmlns="http://www.w3.org/2000/svg"
   xmlns:svg="http://www.w3.org/2000/svg">
  <sodipodi:namedview
     id="namedview40"
     pagecolor="#ffffff"
     bordercolor="#666666"
     borderopacity="1.0"
     inkscape:pageshadow="2"
     inkscape:pageopacity="0.0"
     inkscape:pagecheckerboard="0"
     showgrid="false"
     inkscape:zoom="0.18397871"
     inkscape:cx="154.90923"
     inkscape:cy="410.37357"
     inkscape:window-width="1366"
     inkscape:window-height="708"
     inkscape:window-x="0"
     inkscape:window-y="23"
     inkscape:window-maximized="1"
     inkscape:current-layer="svg38" />
  <defs
     id="defs8">
    <clipPath
       id="id1">
      <path
         d="M 520 216 L 810 216 L 810 750.488281 L 520 750.488281 Z M 520 216 "
         clip-rule="nonzero"
         id="path2" />
    </clipPath>
    <clipPath
       id="id2">
      <path
         d="M 0 216 L 290 216 L 290 750.488281 L 0 750.488281 Z M 0 216 "
         clip-rule="nonzero"
         id="path5" />
    </clipPath>
  </defs>
  <path
     fill="#000000"
     d="M 494.675781 436.125 C 500.886719 436.125 505.925781 431.085938 505.925781 424.871094 L 505.925781 330.503906 C 505.925781 324.289062 500.890625 319.25 494.675781 319.25 C 488.460938 319.25 483.425781 324.289062 483.425781 330.503906 L 483.425781 360.859375 L 463.308594 346.15625 C 459.300781 343.222656 453.660156 344.105469 450.734375 348.117188 C 447.800781 352.132812 448.679688 357.761719 452.691406 360.699219 L 463.617188 368.683594 L 342.902344 368.683594 L 353.828125 360.699219 C 357.839844 357.761719 358.71875 352.132812 355.789062 348.117188 C 352.855469 344.105469 347.222656 343.222656 343.210938 346.15625 L 326.578125 358.3125 L 326.578125 330.503906 C 326.578125 324.289062 321.542969 319.246094 315.328125 319.246094 C 309.113281 319.246094 304.078125 324.285156 304.078125 330.503906 L 304.078125 424.867188 C 304.078125 431.082031 309.113281 436.121094 315.328125 436.121094 C 321.539062 436.121094 326.578125 431.085938 326.578125 424.867188 L 326.578125 397.054688 L 343.210938 409.210938 C 344.808594 410.382812 346.667969 410.945312 348.511719 410.945312 C 351.289062 410.945312 354.027344 409.664062 355.789062 407.25 C 358.71875 403.238281 357.839844 397.605469 353.828125 394.671875 L 342.902344 386.6875 L 463.617188 386.6875 L 452.691406 394.671875 C 448.679688 397.605469 447.800781 403.238281 450.734375 407.25 C 452.496094 409.667969 455.234375 410.945312 458.007812 410.945312 C 459.851562 410.945312 461.707031 410.382812 463.308594 409.210938 L 483.425781 394.511719 L 483.425781 424.863281 C 483.425781 431.085938 488.460938 436.125 494.675781 436.125 Z M 494.675781 436.125 "
     fill-opacity="1"
     fill-rule="nonzero"
     id="path16" />
  <path
     fill="#000000"
     d="M 743.0625 138.117188 C 743.0625 95.078125 708.0625 60.070312 665.042969 60.070312 C 622.019531 60.070312 587.023438 95.078125 587.023438 138.117188 C 587.023438 181.152344 622.019531 216.160156 665.042969 216.160156 C 708.0625 216.160156 743.0625 181.15625 743.0625 138.117188 Z M 614.019531 138.117188 C 614.019531 109.972656 636.910156 87.078125 665.039062 87.078125 C 693.171875 87.078125 716.058594 109.976562 716.058594 138.117188 C 716.058594 166.257812 693.171875 189.152344 665.039062 189.152344 C 636.910156 189.152344 614.019531 166.257812 614.019531 138.117188 Z M 614.019531 138.117188 "
     fill-opacity="1"
     fill-rule="nonzero"
     id="path18" />
  <g
     clip-path="url(#id1)"
     id="g22">
    <path
       fill="#000000"
       d="M 629.152344 750.246094 C 643.292969 750.246094 656.027344 744.238281 665.039062 734.679688 C 674.050781 744.238281 686.785156 750.246094 700.925781 750.246094 C 728.15625 750.246094 750.316406 728.082031 750.316406 700.839844 L 750.316406 520.371094 C 755.367188 522.441406 760.875 523.625 766.660156 523.625 C 790.558594 523.625 809.996094 504.175781 809.996094 480.273438 L 809.996094 311.570312 C 809.996094 259.191406 767.402344 216.582031 715.039062 216.582031 L 615.035156 216.582031 C 562.675781 216.582031 520.078125 259.191406 520.078125 311.570312 L 520.078125 480.273438 C 520.078125 504.179688 539.523438 523.625 563.421875 523.625 C 569.179688 523.625 574.667969 522.382812 579.761719 520.3125 L 579.761719 700.839844 C 579.761719 728.078125 601.917969 750.246094 629.152344 750.246094 Z M 563.421875 496.617188 C 554.410156 496.617188 547.078125 489.285156 547.078125 480.273438 L 547.078125 311.570312 C 547.078125 274.085938 577.566406 243.59375 615.035156 243.59375 L 715.042969 243.59375 C 752.515625 243.59375 782.996094 274.089844 782.996094 311.570312 L 782.996094 480.273438 C 782.996094 489.285156 775.667969 496.617188 766.660156 496.617188 C 757.648438 496.617188 750.316406 489.285156 750.316406 480.273438 C 750.316406 477.515625 749.480469 474.960938 748.066406 472.824219 L 748.066406 371.960938 C 748.066406 365.746094 743.03125 360.707031 736.816406 360.707031 C 730.605469 360.707031 725.566406 365.742188 725.566406 371.960938 L 725.566406 472.824219 C 724.148438 474.960938 723.316406 477.519531 723.316406 480.273438 C 723.316406 480.824219 723.460938 481.335938 723.480469 481.882812 C 723.414062 482.421875 723.316406 482.945312 723.316406 483.5 L 723.316406 700.839844 C 723.316406 713.191406 713.269531 723.238281 700.925781 723.238281 C 688.582031 723.238281 678.539062 713.191406 678.539062 700.839844 C 678.539062 698.082031 677.707031 695.527344 676.289062 693.390625 L 676.289062 488.613281 C 676.289062 482.398438 671.253906 477.355469 665.039062 477.355469 C 658.828125 477.355469 653.789062 482.394531 653.789062 488.613281 L 653.789062 693.390625 C 652.375 695.527344 651.539062 698.085938 651.539062 700.839844 C 651.539062 713.191406 641.492188 723.238281 629.148438 723.238281 C 616.804688 723.238281 606.757812 713.191406 606.757812 700.839844 L 606.757812 491.0625 C 606.757812 487.996094 605.695312 485.199219 603.972656 482.929688 C 604.191406 482.054688 604.503906 481.21875 604.503906 480.277344 L 604.503906 463.871094 C 604.503906 457.65625 599.46875 452.617188 593.253906 452.617188 C 587.042969 452.617188 582.003906 457.652344 582.003906 463.871094 L 582.003906 480.277344 C 582.003906 480.28125 582.007812 480.285156 582.007812 480.292969 C 580.671875 481.699219 579.59375 483.386719 578.953125 485.351562 C 576.765625 492.089844 570.519531 496.617188 563.421875 496.617188 Z M 563.421875 496.617188 "
       fill-opacity="1"
       fill-rule="nonzero"
       id="path20" />
  </g>
  <path
     fill="#000000"
     d="M 593.261719 441.546875 C 599.476562 441.546875 604.515625 436.507812 604.515625 430.289062 L 604.515625 327.976562 C 604.515625 321.761719 599.476562 316.722656 593.261719 316.722656 C 587.050781 316.722656 582.011719 321.757812 582.011719 327.976562 L 582.011719 430.289062 C 582.011719 436.503906 587.046875 441.546875 593.261719 441.546875 Z M 593.261719 441.546875 "
     fill-opacity="1"
     fill-rule="nonzero"
     id="path24" />
  <path
     fill="#000000"
     d="M 736.820312 351.140625 C 743.03125 351.140625 748.070312 346.101562 748.070312 339.886719 L 748.070312 327.976562 C 748.070312 321.761719 743.035156 316.722656 736.820312 316.722656 C 730.605469 316.722656 725.566406 321.757812 725.566406 327.976562 L 725.566406 339.886719 C 725.566406 346.101562 730.605469 351.140625 736.820312 351.140625 Z M 736.820312 351.140625 "
     fill-opacity="1"
     fill-rule="nonzero"
     id="path26" />
  <path
     fill="#000000"
     d="M 66.9375 138.117188 C 66.9375 181.152344 101.9375 216.160156 144.957031 216.160156 C 187.980469 216.160156 222.976562 181.152344 222.976562 138.117188 C 222.976562 95.078125 187.980469 60.070312 144.957031 60.070312 C 101.9375 60.070312 66.9375 95.078125 66.9375 138.117188 Z M 195.980469 138.117188 C 195.980469 166.257812 173.089844 189.152344 144.960938 189.152344 C 116.828125 189.152344 93.941406 166.257812 93.941406 138.117188 C 93.941406 109.976562 116.824219 87.078125 144.957031 87.078125 C 173.089844 87.078125 195.980469 109.976562 195.980469 138.117188 Z M 195.980469 138.117188 "
     fill-opacity="1"
     fill-rule="nonzero"
     id="path28" />
  <path
     fill="#000000"
     d="M 73.179688 358.640625 C 79.394531 358.640625 84.433594 353.601562 84.433594 347.386719 L 84.433594 327.976562 C 84.433594 321.761719 79.394531 316.722656 73.179688 316.722656 C 66.964844 316.722656 61.929688 321.757812 61.929688 327.976562 L 61.929688 347.386719 C 61.933594 353.601562 66.96875 358.640625 73.179688 358.640625 Z M 73.179688 358.640625 "
     fill-opacity="1"
     fill-rule="nonzero"
     id="path30" />
  <g
     clip-path="url(#id2)"
     id="g34">
    <path
       fill="#000000"
       d="M 43.335938 523.625 C 49.125 523.625 54.628906 522.441406 59.679688 520.371094 L 59.679688 700.839844 C 59.679688 728.078125 81.835938 750.246094 109.070312 750.246094 C 123.210938 750.246094 135.949219 744.238281 144.957031 734.679688 C 153.96875 744.238281 166.707031 750.246094 180.847656 750.246094 C 208.078125 750.246094 230.238281 728.082031 230.238281 700.839844 L 230.238281 520.375 C 235.289062 522.441406 240.792969 523.625 246.574219 523.625 C 270.472656 523.625 289.917969 504.175781 289.917969 480.273438 L 289.917969 311.570312 C 289.917969 259.191406 247.324219 216.582031 194.960938 216.582031 L 94.957031 216.582031 C 42.59375 216.582031 0 259.191406 0 311.570312 L 0 480.273438 C 0 504.179688 19.441406 523.625 43.335938 523.625 Z M 27 311.570312 C 27 274.085938 57.484375 243.59375 94.957031 243.59375 L 194.960938 243.59375 C 232.433594 243.59375 262.917969 274.089844 262.917969 311.570312 L 262.917969 480.273438 C 262.917969 489.285156 255.585938 496.617188 246.574219 496.617188 C 237.566406 496.617188 230.238281 489.285156 230.238281 480.273438 C 230.238281 477.515625 229.402344 474.960938 227.988281 472.824219 L 227.988281 459.929688 C 227.988281 453.714844 222.953125 448.675781 216.738281 448.675781 C 210.523438 448.675781 205.484375 453.710938 205.484375 459.929688 L 205.484375 472.824219 C 204.070312 474.960938 203.238281 477.519531 203.238281 480.273438 C 203.238281 480.824219 203.378906 481.335938 203.398438 481.882812 C 203.335938 482.421875 203.238281 482.945312 203.238281 483.5 L 203.238281 700.839844 C 203.238281 713.191406 193.191406 723.238281 180.847656 723.238281 C 168.5 723.238281 158.453125 713.191406 158.453125 700.839844 C 158.453125 698.082031 157.621094 695.527344 156.207031 693.390625 L 156.207031 488.609375 C 156.207031 482.394531 151.171875 477.355469 144.953125 477.355469 C 138.738281 477.355469 133.703125 482.394531 133.703125 488.609375 L 133.703125 693.390625 C 132.289062 695.527344 131.453125 698.085938 131.453125 700.839844 C 131.453125 713.191406 121.414062 723.238281 109.070312 723.238281 C 96.726562 723.238281 86.679688 713.191406 86.679688 700.839844 L 86.679688 483.5 C 86.679688 482.949219 86.582031 482.421875 86.515625 481.882812 C 86.539062 481.335938 86.679688 480.824219 86.679688 480.273438 C 86.679688 477.515625 85.84375 474.960938 84.429688 472.824219 L 84.429688 377.398438 C 84.429688 371.183594 79.394531 366.144531 73.179688 366.144531 C 66.960938 366.144531 61.925781 371.179688 61.925781 377.398438 L 61.925781 472.824219 C 60.511719 474.960938 59.679688 477.519531 59.679688 480.273438 C 59.679688 489.285156 52.347656 496.617188 43.335938 496.617188 C 34.324219 496.617188 26.996094 489.285156 26.996094 480.273438 L 26.996094 311.570312 Z M 27 311.570312 "
       fill-opacity="1"
       fill-rule="nonzero"
       id="path32" />
  </g>
  <path
     fill="#000000"
     d="M 216.738281 438.917969 C 222.949219 438.917969 227.988281 433.882812 227.988281 427.664062 L 227.988281 327.976562 C 227.988281 321.761719 222.953125 316.722656 216.738281 316.722656 C 210.523438 316.722656 205.484375 321.757812 205.484375 327.976562 L 205.484375 427.664062 C 205.488281 433.882812 210.523438 438.917969 216.738281 438.917969 Z M 216.738281 438.917969 "
     fill-opacity="1"
     fill-rule="nonzero"
     id="path36" />
</svg>
