<?xml version="1.0" encoding="UTF-8" standalone="no"?>
<svg
   width="1080"
   zoomAndPan="magnify"
   viewBox="0 0 810 809.999993"
   height="1080"
   preserveAspectRatio="xMidYMid meet"
   version="1.0"
   id="svg23"
   sodipodi:docname="3.svg"
   inkscape:version="1.1.2 (0a00cf5339, 2022-02-04)"
   xmlns:inkscape="http://www.inkscape.org/namespaces/inkscape"
   xmlns:sodipodi="http://sodipodi.sourceforge.net/DTD/sodipodi-0.dtd"
   xmlns="http://www.w3.org/2000/svg"
   xmlns:svg="http://www.w3.org/2000/svg">
  <sodipodi:namedview
     id="namedview25"
     pagecolor="#ffffff"
     bordercolor="#666666"
     borderopacity="1.0"
     inkscape:pageshadow="2"
     inkscape:pageopacity="0.0"
     inkscape:pagecheckerboard="0"
     showgrid="false"
     inkscape:zoom="0.26018519"
     inkscape:cx="286.33451"
     inkscape:cy="693.73664"
     inkscape:window-width="1366"
     inkscape:window-height="708"
     inkscape:window-x="0"
     inkscape:window-y="23"
     inkscape:window-maximized="1"
     inkscape:current-layer="svg23" />
  <defs
     id="defs5">
    <clipPath
       id="id1">
      <path
         d="M 14 126.5625 L 797 126.5625 L 797 683 L 14 683 Z M 14 126.5625 "
         clip-rule="nonzero"
         id="path2" />
    </clipPath>
  </defs>
  <g
     id="g832"
     inkscape:export-filename="/home/dev/Developer/00_PROJECT/ibnuhalalini.in/Image/Wellness Covid-19 Wear a Mask Instagram Post /g832.png"
     inkscape:export-xdpi="601.34003"
     inkscape:export-ydpi="601.34003">
    <path
       fill="#000000"
       d="M 576.535156 325.785156 C 533.101562 332.011719 486.730469 317.894531 452.917969 307.582031 C 432.160156 301.253906 417.054688 296.527344 405.628906 297.09375 C 394.140625 296.539062 379.125 301.253906 358.363281 307.582031 C 324.542969 317.894531 278.273438 332.023438 234.722656 325.785156 C 227.808594 324.761719 221.445312 329.605469 220.464844 336.488281 C 219.480469 343.382812 224.269531 349.773438 231.160156 350.757812 C 239.851562 352.003906 248.582031 352.546875 257.222656 352.546875 C 297.332031 352.546875 336.03125 340.746094 365.710938 331.707031 C 382.289062 326.652344 398.183594 322.117188 404.847656 322.304688 C 405.367188 322.332031 405.882812 322.332031 406.398438 322.304688 C 413.1875 322.039062 428.984375 326.667969 445.5625 331.707031 C 481.628906 342.714844 531.035156 357.789062 580.101562 350.769531 C 586.992188 349.785156 591.777344 343.394531 590.796875 336.5 C 589.8125 329.605469 583.4375 324.761719 576.535156 325.785156 Z M 576.535156 325.785156 "
       fill-opacity="1"
       fill-rule="nonzero"
       id="path15"
       style="stroke-width:3.74999998;stroke-miterlimit:4;stroke-dasharray:none" />
    <path
       fill="#000000"
       d="M 580.101562 418.359375 C 531.109375 411.402344 481.730469 426.429688 445.664062 437.421875 C 429.0625 442.460938 413.425781 447.304688 406.421875 446.824219 C 405.90625 446.800781 405.367188 446.800781 404.847656 446.824219 C 397.957031 447.289062 382.238281 442.488281 365.632812 437.421875 C 329.582031 426.453125 280.160156 411.414062 231.171875 418.359375 C 224.28125 419.34375 219.492188 425.722656 220.464844 432.617188 C 221.445312 439.511719 227.808594 444.316406 234.710938 443.332031 C 278.195312 437.15625 324.480469 451.25 358.289062 461.535156 C 378.117188 467.574219 392.832031 472.0625 404.03125 472.0625 C 404.570312 472.0625 405.113281 472.046875 405.640625 472.023438 C 416.839844 472.539062 432.183594 467.875 453.019531 461.535156 C 486.804688 451.234375 533.113281 437.144531 576.574219 443.332031 C 583.464844 444.316406 589.839844 439.511719 590.820312 432.617188 C 591.765625 425.722656 586.980469 419.34375 580.101562 418.359375 Z M 580.101562 418.359375 "
       fill-opacity="1"
       fill-rule="nonzero"
       id="path17"
       style="stroke-width:3.74999998;stroke-miterlimit:4;stroke-dasharray:none" />
    <path
       fill="#000000"
       d="m 789.46484,160.67578 c -8.41406,-21.19141 -24.17187,-33.51953 -43.25781,-33.82031 -0.23828,0 -0.46484,0 -0.71875,0 -29.99219,0 -60.55469,29.64844 -84.61328,81.68359 -6.46484,0.36719 -12.94922,0.75781 -19.125,0.75781 -62.65625,0 -105.23438,-18.05468 -154.39063,-41.63671 -31.21484,-14.98829 -56.41015,-21.67188 -81.6914,-21.67188 -25.3086,0 -50.52735,6.66797 -81.76953,21.67188 -49.12891,23.58203 -91.69532,41.63671 -154.40235,41.63671 -6.14843,0 -12.64843,-0.39062 -19.10937,-0.75781 -24.0625,-52.0625 -54.621095,-81.68359 -84.640626,-81.68359 -0.242188,0 -0.480469,0 -0.71875,0 -19.085938,0.30078 -34.84375,12.6289 -43.246094,33.83203 -21.378906,53.86328 4.507812,154.30469 109.76953,258.15234 19.50391,106.03907 178.07422,251.16797 272.44141,263.33203 0.54297,0.0625 1.07031,0.10157 1.61328,0.10157 0.53906,0 1.07031,-0.0391 1.61328,-0.10157 C 501.49609,670.01953 659.95312,525.09375 679.64453,418.85156 784.92969,315.00781 810.83203,214.55078 789.46484,160.67578 Z m -43.92578,-8.59766 c 0.0899,0 0.19141,0 0.26563,0 11.48828,0.17579 17.59765,11.29297 20.21875,17.91407 13.79297,34.73828 0.88281,116.96484 -84.30078,210.32422 V 223.55078 c 23.35546,-52.69141 48.8125,-71.47266 63.8164,-71.47266 z M 45.222656,169.99219 c 2.621094,-6.60547 8.730469,-17.72657 20.21875,-17.91407 14.953125,0.31641 40.613284,18.45313 64.109374,71.48829 V 380.32812 C 44.355469,286.99609 31.441406,204.73047 45.222656,169.99219 Z M 656.53906,399.56641 C 654.73828,491.98828 493.63281,644.00391 405.62891,656.9375 317.61328,644.00391 156.51953,491.97656 154.74219,399.82812 v -165.625 c 75.44531,2.92579 126.23828,-17.96093 180.0664,-43.8164 27.66407,-13.27344 49.53125,-19.17188 70.8711,-19.17188 21.3164,0 43.17187,5.91016 70.79687,19.17188 53.86719,25.86719 104.7461,46.79297 180.0625,43.8164 z m 0,0"
       fill-opacity="1"
       fill-rule="nonzero"
       id="path19"
       style="stroke:#000000;stroke-opacity:1;stroke-width:7.49999997;stroke-miterlimit:4;stroke-dasharray:none" />
  </g>
</svg>
