<?xml version="1.0" encoding="UTF-8" standalone="no"?>
<svg
   width="1587"
   zoomAndPan="magnify"
   viewBox="0 0 1190.25 500.44573"
   height="667.26099"
   preserveAspectRatio="xMidYMid meet"
   version="1.0"
   id="svg24"
   sodipodi:docname="line-art-1.svg"
   inkscape:version="1.1.2 (0a00cf5339, 2022-02-04)"
   xmlns:inkscape="http://www.inkscape.org/namespaces/inkscape"
   xmlns:sodipodi="http://sodipodi.sourceforge.net/DTD/sodipodi-0.dtd"
   xmlns="http://www.w3.org/2000/svg"
   xmlns:svg="http://www.w3.org/2000/svg">
  <sodipodi:namedview
     id="namedview26"
     pagecolor="#ffffff"
     bordercolor="#666666"
     borderopacity="1.0"
     inkscape:pageshadow="2"
     inkscape:pageopacity="0.0"
     inkscape:pagecheckerboard="0"
     showgrid="false"
     inkscape:zoom="0.25033408"
     inkscape:cx="760.98308"
     inkscape:cy="509.31939"
     inkscape:window-width="1366"
     inkscape:window-height="708"
     inkscape:window-x="0"
     inkscape:window-y="23"
     inkscape:window-maximized="1"
     inkscape:current-layer="svg24" />
  <defs
     id="defs8">
    <clipPath
       id="id1">
      <path
         d="M 0,0.40625 H 1189.5 V 1683.0938 H 0 Z m 0,0"
         clip-rule="nonzero"
         id="path2" />
    </clipPath>
    <clipPath
       id="id2">
      <path
         d="m 0,625 h 1189.5 v 436 H 0 Z m 0,0"
         clip-rule="nonzero"
         id="path5" />
    </clipPath>
  </defs>
  <g
     clip-path="url(#id2)"
     id="g22"
     transform="matrix(1.1498554,0,0,1.1498554,-89.018592,-719.01738)"
     style="fill:#b49b6d;fill-opacity:1;stroke-width:0.869675">
    <path
       fill="#d983dd"
       d="m 1188.6016,720.26953 c -1.0313,-9.91016 -3.168,-19.66016 -6.8125,-28.77344 -7.1328,-18.23047 -19.8086,-33.53125 -34.9453,-43.83593 -15.1329,-10.38282 -32.0899,-16.64454 -48.7305,-19.81641 -30.9805,-5.78516 -64.1016,-1.82031 -91.7578,13.55469 -12.67581,7.13281 -23.53128,16.01172 -32.08988,26.07812 -17.11328,20.05469 -25.59375,43.51563 -25.83203,64.28516 -0.15625,10.38281 1.82422,20.05469 5.23047,28.21875 3.40625,8.24219 8.08203,14.98047 13.07422,20.21094 20.28516,21.16406 63.70702,35.51171 90.96482,19.57812 23.375,-16.32812 28.0508,-37.96875 28.5235,-46.60547 1.1093,-21.24609 -15.1328,-40.1875 -38.9844,-14.90234 -39.7735,-42.08985 -62.19923,17.4375 -16.0039,45.17969 9.7461,5.86718 -8.3985,13.94921 -24.2461,11.01953 -20.60158,-3.88672 -38.90626,-17.51953 -47.06642,-37.01953 -3.08984,-7.3711 -4.91406,-16.08985 -4.83594,-25.60157 0.082,-19.02343 7.84766,-41.13672 24.01172,-60.08203 8,-9.51172 18.30078,-17.99219 30.26564,-24.73047 26.3867,-14.90234 58.0039,-18.6289 87.5586,-13.16015 16.0039,3.01562 32.168,8.8789 46.5117,18.70703 7.3672,4.99609 14.0234,11.17578 19.7305,18.3125 -7.1328,-6.34375 -16.0078,-8.71875 -25.5157,2.21875 0,0 20.6016,0.3164 40.0157,24.17578 5.7031,16.16797 6.8125,34.40234 4.7539,52.47266 -3.6446,31.86328 -15.2149,62.53906 -35.0235,87.90625 -20.6015,26.3164 -49.4414,43.91015 -80.1875,55.96093 -34.5468,13.63282 -72.26168,19.02344 -109.18746,20.60547 -10.61719,0.47656 -21.23438,0.5586 -31.85157,0.39844 -9.82812,-0.16016 -19.65234,-0.63281 -29.47656,-1.26953 -21.63281,-1.42578 -43.82031,-3.48828 -64.89453,-8.40235 -3.09375,-0.71093 -6.18359,-1.26562 -9.19141,-2.14062 -12.28515,-3.01172 -24.5664,-6.73438 -36.84765,-10.53906 -24.48438,-7.84766 -49.04688,-16.64844 -73.84766,-25.76172 -9.58984,-3.56641 -19.17578,-7.13281 -28.76172,-10.78125 12.35938,0.87109 23.60938,-2.37891 28.12891,-14.74219 0,0 -29.47656,9.43359 -74.72266,-3.17187 v 0.16015 c -24.95703,-9.51172 -50.23437,-19.18359 -75.75,-28.69531 -20.99609,-7.84766 -42.23437,-15.53516 -63.70703,-22.98438 9.03516,-3.88671 18.06641,-7.76953 27.10156,-11.73437 11.96485,-5.23047 23.92969,-10.53906 35.89454,-15.85156 6.41796,1.82422 12.83593,3.64453 19.33203,5.3125 27.01953,7.13281 54.67187,12.83984 82.88281,16.08984 14.02344,1.66406 28.44531,3.08984 42.62891,2.93359 29,-0.32031 58.07812,-1.42968 84.86328,-14.03125 6.57422,-3.17187 12.99218,-6.97656 18.69922,-11.8125 5.70312,-4.7539 10.69531,-10.62109 14.10546,-17.4375 3.32422,-6.8164 4.67188,-14.98046 2.69141,-22.66796 -1.90234,-7.6875 -6.8125,-14.1875 -12.91406,-18.78516 -6.10156,-4.67969 -13.07422,-7.69141 -20.28516,-9.67188 -7.21094,-1.90234 -14.57812,-3.01171 -21.94922,-3.25 -14.8164,-0.55468 -29.47656,1.34766 -43.8164,4.51954 -1.10938,0.23828 -2.30078,0.55468 -3.41016,0.79296 2.37891,-3.09375 2.85547,-7.37109 -0.47266,-13 0,0 -4.12109,11.57032 -20.76171,19.02344 -5.78516,1.90235 -11.56641,3.88281 -17.35157,5.94531 -41.91797,15.0586 -82.72265,32.81641 -123.45312,50.8086 C 540.92187,747.69141 521.34766,741.19531 501.9375,734.45703 450.11328,716.46484 399.95703,696.41016 349.32422,680.875 325.31641,673.5 301.23047,667.23828 276.98437,663.11719 c 6.01954,-2.69532 10.30079,-7.60938 10.77344,-16.16797 0,0 -16.0039,11.09375 -45.64062,11.80859 -15.44922,-1.1875 -30.82032,-1.26953 -46.03516,-0.0781 -25.03906,1.98047 -49.68359,8.16406 -72.82031,17.99218 -22.73828,9.75 -43.738282,22.82813 -61.644532,38.76172 -8.953126,8.00391 -17.195313,16.64453 -24.40625,26.07813 C 30,750.86328 23.742188,760.85156 18.589844,771.3125 13.441406,781.69922 9.320312,792.55859 6.46875,803.57422 3.617188,814.67187 1.871094,825.84766 1.078125,836.94531 0.367188,848.12109 0.761719,859.14062 1.792969,870 4.25,891.24219 9.082031,912.16797 17.957031,931.66797 c 4.359375,9.51172 9.351563,18.46875 14.898438,27.02734 5.546875,8.5625 11.488281,16.56641 17.828125,24.09766 2.296875,2.69531 4.59375,5.30859 7.050781,7.92578 -10.140625,-5.07422 -20.996094,-6.02344 -28.605469,5.46875 0,0 24.722656,-1.98047 55.386719,19.5781 9.90625,7.9258 20.445315,15.0625 31.535155,21.086 31.69531,17.5976 66.24219,25.3632 97.62109,23.3828 15.76954,-0.793 30.66407,-3.8047 44.375,-8.0039 13.78516,-4.2032 26.46485,-9.6719 37.875,-15.9336 22.89844,-12.5235 40.80469,-27.9024 54.27735,-42.96096 13.54687,-15.0625 23.05469,-29.96485 28.68359,-43.19922 5.625,-12.6836 11.48828,-32.66016 7.12891,-46.53125 -1.42578,-4.4375 -6.17969,-6.89453 -10.61719,-5.46875 -6.25781,1.98437 -6.02344,8.16406 -4.99219,13.55469 1.26953,6.42187 2.61719,11.57421 2.29688,18.23046 -0.23438,4.75782 -1.42578,10.38672 -3.32813,16.64844 -3.88281,12.44141 -11.88281,27.26563 -24.5625,42.00781 -12.75781,14.66408 -30.1875,29.40628 -52.21484,41.61328 -11.01563,6.1055 -23.21875,11.3359 -36.53125,15.457 -13.23047,4.043 -27.65234,6.9766 -42.70703,7.7696 -30.1875,1.9804 -63.3086,-5.3907 -94.05469,-22.3516 C 95.132812,1017.75 73.660156,999.67578 55.753906,978.75 49.574219,971.37891 43.710938,963.60937 38.320312,955.36719 21.601562,929.68359 11.855469,899.96094 8.210938,869.60156 7.179688,859.05859 6.785156,848.35937 7.5,837.57812 c 0.789062,-10.77734 2.453125,-21.55859 5.148438,-32.17968 2.773437,-10.6211 6.734374,-21.08594 11.648437,-31.07032 4.914063,-10.07031 11.011719,-19.73828 17.90625,-28.77343 6.972656,-9.03907 14.898437,-17.51953 23.613281,-25.28516 34.785154,-30.99609 81.296874,-51.36719 130.820314,-55.48828 24.80078,-2.05859 50.15625,-0.47266 75.43359,3.56641 25.27735,3.96484 50.55078,10.46484 75.67188,18.15234 50.39453,15.37891 100.55078,35.27344 152.44922,53.26562 17.51171,6.10547 35.26171,11.89063 53.32812,17.28125 -10.30078,4.51954 -20.60156,9.11329 -30.90234,13.63282 -10.53907,4.59765 -21.07813,9.19531 -31.69532,13.71484 -2.69531,-0.875 -5.30859,-1.82422 -8.0039,-2.77734 -26.38281,-8.95703 -53.16797,-17.51563 -80.50391,-24.96875 -6.8125,-1.90235 -13.70703,-3.56641 -20.60156,-5.3086 -6.97266,-1.58593 -13.86719,-3.32812 -20.83984,-4.59765 -14.10157,-2.61719 -28.12891,-5.23047 -42.46875,-6.42188 -14.34375,-1.1875 -28.92188,-1.42578 -43.34375,1.10938 -13.94532,2.3789 -26.94141,8.00781 -36.44922,18.6289 -11.17188,12.52344 -10.30078,28.53516 -3.01172,42.48438 7.76562,14.82422 20.60156,24.01953 36.13281,29.72656 13.94531,5.15234 28.92188,6.97266 43.58203,6.81641 14.73828,-0.16016 29.39453,-2.0625 43.73828,-4.91407 28.76172,-5.86718 56.65235,-15.21875 84.07032,-25.60156 16.0039,-6.10547 31.85156,-12.60547 47.62109,-19.26172 23.05859,8.00391 45.87891,16.2461 68.46094,24.64844 16.40234,6.10547 32.64453,12.28906 48.80859,18.39063 26.85938,21.32421 29.71484,43.99218 29.71484,43.99218 14.81641,-15.29687 0.31641,-29.25 -12.75781,-37.49218 28.6836,10.9375 57.12891,21.8789 85.33594,32.33984 24.80469,9.11719 49.36719,17.99219 74.00781,25.83984 12.36328,3.80469 24.64453,7.60938 37.08594,10.70313 12.19922,3.40625 24.95703,5.38672 37.55469,6.97265 44.92968,5.62891 90.09375,7.29297 135.17968,1.98438 12.83593,-1.50781 25.67183,-3.72656 38.26953,-6.66016 11.0156,-2.53515 21.9492,-5.70703 32.6484,-9.51172 11.0938,-3.96484 21.8672,-8.71875 32.168,-14.34765 10.7774,-5.86328 21,-12.60156 30.4297,-20.3711 9.5078,-7.76562 18.0625,-16.48437 25.5117,-26.23437 6.9727,-9.11719 13.3125,-19.34375 18.2266,-29.72656 4.4375,-9.42969 8.1601,-19.5 10.8555,-29.56641 2.6132,-9.66797 4.5937,-19.57812 5.7812,-29.5625 1.2695,-10.38672 1.5078,-20.45312 0.4766,-30.4375 z M 670.78906,712.5 c 22.82031,-4.51953 35.41797,4.75391 35.41797,4.75391 -0.55469,-8.95704 -4.59375,-12.76172 -9.90234,-13.94922 23.76953,-8.00391 48.41406,-14.26563 73.6875,-13.23828 7.13281,0.23828 14.18359,1.26953 20.92187,3.09375 12.59766,3.40625 26.46485,11.41406 29.79297,25.125 3.32813,13.79296 -5.23047,26.71484 -15.29297,35.27343 -5.30859,4.51953 -11.33203,8.08594 -17.67187,11.09766 -12.67578,5.94531 -26.54297,9.43359 -40.41016,11.41406 -3.48437,0.47656 -6.97266,0.8711 -10.45703,1.1875 -10.38281,1.03125 -21.23828,1.34766 -31.69531,0.79297 -42.23438,-1.98047 -83.27735,-8.24219 -124.2461,-19.02344 -4.35547,-1.1875 -8.79297,-2.3789 -13.15234,-3.5664 C 601.85156,740.40234 636.00391,725.5 670.78906,712.5 Z m -229.23047,91.47266 c -27.25781,10.30468 -54.91406,19.65625 -83.27734,25.36328 -14.18359,2.85547 -28.52734,4.75781 -42.86719,4.83593 -14.34375,0.0781 -28.68359,-1.66406 -41.99609,-6.57812 -13.07422,-4.83594 -25.59375,-12.20703 -32.72656,-24.57422 -1.74219,-3.01172 -3.08985,-6.18359 -4.03907,-9.43359 -0.55468,-1.66407 -0.79297,-3.32813 -1.1914,-4.99219 -1.66407,-7.6875 0.16015,-17.4375 4.91406,-24.09766 3.56641,-4.91406 8.00391,-8.63672 13.23437,-11.57031 l 2.29688,-1.10937 c 6.17969,-3.01172 12.99609,-4.91407 19.88672,-6.10547 20.52344,-3.56641 42.78906,-2.14063 63.3125,1.58593 13.94531,2.53516 27.73047,5.3125 41.51953,8.40235 6.8125,1.74219 13.70703,3.41015 20.44141,5.3125 27.17968,7.37109 53.88281,15.92969 80.1875,24.88672 1.03125,0.3164 2.0625,0.71484 3.01171,1.03125 -14.10546,5.86718 -28.36718,11.65234 -42.70703,17.04297 z m 0,0"
       fill-opacity="1"
       fill-rule="nonzero"
       id="path20"
       style="fill:#b49b6d;fill-opacity:1;stroke-width:0.756334" />
  </g>
</svg>
